<?xml version="1.0" encoding="utf-8"?>
<!-- Generator: Adobe Illustrator 25.3.1, SVG Export Plug-In . SVG Version: 6.00 Build 0)  -->
<svg version="1.1" id="Capa_1" xmlns="http://www.w3.org/2000/svg" xmlns:xlink="http://www.w3.org/1999/xlink" x="0px" y="0px"
	 viewBox="0 0 792 312.89" style="enable-background:new 0 0 792 312.89;" xml:space="preserve">
<style type="text/css">
	.st0{fill:#E00F1A;}
</style>
<g>
	<path class="st0" d="M176.64,34.5c83.38,0,151.22,55.21,151.22,123.08s-67.84,123.08-151.22,123.08S25.42,225.45,25.42,157.58
		S93.26,34.5,176.64,34.5 M176.64,12.56C81.01,12.56,3.48,77.49,3.48,157.58S81.01,302.6,176.64,302.6S349.8,237.67,349.8,157.58
		S272.27,12.56,176.64,12.56L176.64,12.56z"/>
	<g>
		<path class="st0" d="M175.49,115.23h-31.1c-2.68,0-4.85,2.17-4.85,4.85v131.65h40.79V120.08
			C180.34,117.4,178.17,115.23,175.49,115.23z"/>
		<path class="st0" d="M139.54,251.73V120.08c0-2.68,2.17-4.85,4.85-4.85h31.1c2.68,0,4.85,2.17,4.85,4.85v131.65"/>
		<path class="st0" d="M287.38,191.83c-3.93-2.97-8.3-5.49-12.71-7.94c-15.04-8.35-16.31-26.36-17.42-26.89
			c-0.14-10.74,1.24-42.12,0.77-46.61c-0.27-2.6-6.59-9.95-9.73-12.29c-11.7-8.75-19.85-18.57-24.21-24.51
			c-0.52-11.27-9.79-20.26-21.19-20.26h-88.47c-11.73,0-21.24,9.51-21.24,21.24v151.49c0,12.79,9.47,22.82,21.73,24.67
			c3.33,0.5,6.79-0.06,9.58-1.95c2.2-1.49,4.18-3.9,4.02-7.69V120.82c0-2.8-2.46-4.88-5.24-4.58c-8.91,0.95-17.48-6.46-17.48-14.71
			V79.79c0-7.57,6.14-13.71,13.71-13.71h77.34c7.57,0,13.71,6.14,13.71,13.71v21.73c0,7.58-6.16,13.73-13.75,13.71
			c-1.69,0-3.06,1.4-3.06,3.09v128.69c0,2.6,4.73,2.66,4.73,2.66c12.23,0,22.51-6.92,25.6-18.37c4.71,5.97,14.54,13.02,28.05,16.36
			c6.27,1.55,12.14,1.94,17.47,1.62C299.3,247.45,311.12,209.79,287.38,191.83z M223.86,113.56l0.29-20.66c0,0,1.04-5.7,8.44,4.1
			s12.39,16.27-2.22,16.46C226.93,113.5,223.86,113.56,223.86,113.56z M243.5,129.36v25.15h-3.48c-2.02,0-3.79-1.33-4.36-3.28
			c-1.4-4.82-3.73-13.68-3.12-17.45C233.7,126.59,243.5,129.36,243.5,129.36z M267.44,237.93c0,0-14.02,2.55-23.77-11.22
			c-3.22-4.54-5.08-9.89-5.7-15.42c-0.67-6.01-2.01-15.84-3.96-20.67c-2.93-7.24-8.55-14.6-8.05-18.39c0-4.8,3.89-8.69,8.69-8.69
			c4.26,0,7.8,3.07,8.54,7.12l0.02-0.01c0,0,2.18,9.97,9.93,15.57c7.61,5.5,26.85,13.81,29.46,19.29c2.87,3.43,4.6,7.84,4.6,12.67
			C287.19,229.08,278.35,237.93,267.44,237.93z"/>
	</g>
	<g>
		<path class="st0" d="M498.16,125.01h-89.5c-21.79,0-40.32,15.91-43.61,37.46l-0.26,1.73h117.94c5,0,9.28-3.6,10.14-8.53
			L498.16,125.01z"/>
		<g>
			<path class="st0" d="M431.36,179.15l-4.76,28.58h10.75v0.03c4.41,0,7.98,3.58,7.98,7.99c0,4.41-3.57,7.98-7.98,7.99v0h-13.42l0,0
				h-21.41c-4.14,0-7.27-3.76-6.52-7.83l6.76-36.75h-31.33c-5.13,0-9.49,3.75-10.27,8.82l-7.45,48.75
				c-1.96,12.85,7.98,24.43,20.98,24.43h67.85c18.54,0,34.39-13.35,37.55-31.62l8.71-50.39H431.36z"/>
		</g>
	</g>
	<g>
		<path class="st0" d="M639.57,125.01h-89.5c-21.79,0-40.32,15.91-43.61,37.46l-0.26,1.73h117.94c5,0,9.28-3.6,10.14-8.53
			L639.57,125.01z"/>
		<g>
			<path class="st0" d="M572.77,179.15l-4.76,28.58h10.75v0.03c4.41,0,7.98,3.58,7.98,7.99c0,4.41-3.57,7.98-7.98,7.99v0h-13.42l0,0
				h-21.41c-4.14,0-7.27-3.76-6.52-7.83l6.76-36.75h-31.33c-5.13,0-9.49,3.75-10.27,8.82l-7.45,48.75
				c-1.96,12.85,7.98,24.43,20.98,24.43h67.85c18.54,0,34.39-13.35,37.55-31.62l8.71-50.39H572.77z"/>
		</g>
	</g>
	<g>
		<path class="st0" d="M775.88,155.14c2.97-15.64-9.02-30.13-24.94-30.13h-89.06c-4.43,0-8.21,3.19-8.95,7.56l-5.37,31.63h117.39
			C770.29,164.2,774.88,160.4,775.88,155.14L775.88,155.14z"/>
		<g>
			<path class="st0" d="M761.55,196.88c-0.03-0.02-0.05-0.04-0.08-0.07c-1.83-1.48-1.66-4.35-0.37-5.41
				c4.52-4.15,7.53-7.29,10.22-12.25H650.76c-3.32,0-6.15,2.39-6.71,5.66l-12.96,76.34h32.18c3.16,0,5.88-2.25,6.46-5.36l7.48-40.01
				c0.94-5.02,5.32-8.67,10.44-8.67h27.61c6.65,0,11.66,6.04,10.44,12.57l-7.75,41.47h37.8l9.96-52.4
				C766.53,204.34,765.02,199.73,761.55,196.88z"/>
		</g>
	</g>
	<g>
		<path class="st0" d="M762.64,247.43c0-8.25,5.88-13.83,12.95-13.83c7.06,0,12.94,5.58,12.94,13.83s-5.88,13.73-12.94,13.73
			C768.51,261.16,762.64,255.68,762.64,247.43z M786.3,247.43c0-6.77-4.75-11.79-10.72-11.79c-5.96,0-10.73,5.02-10.73,11.79
			c0,6.8,4.77,11.67,10.73,11.67C781.55,259.1,786.3,254.23,786.3,247.43z M770.76,239.84h4.88c2.77,0,5.46,1.05,5.46,4.56
			c0,1.81-1.22,3.49-2.8,3.96l3.47,6.15h-2.65l-2.74-5.38h-3.38v5.38h-2.24V239.84z M775.06,247.16c2.17,0,3.62-0.75,3.62-2.62
			c0-1.61-0.83-2.7-3.38-2.7h-2.29v5.32H775.06z"/>
	</g>
</g>
</svg>
